<?xml version="1.0" encoding="UTF-8"?>
<svg width="185px" height="258px" viewBox="0 0 185 258" version="1.1" xmlns="http://www.w3.org/2000/svg" xmlns:xlink="http://www.w3.org/1999/xlink">
    <title>路径 2</title>
    <g id="页面-1" stroke="none" stroke-width="1" fill="none" fill-rule="evenodd">
        <g id="桌面端-HD" transform="translate(-75.000000, -565.000000)" fill="#1A69F6">
            <path d="M130.452642,567.113806 L244.543068,648.523893 C246.935196,650.230814 248.455438,652.903525 248.69994,655.832018 L259.691261,787.479277 C260.018943,791.404053 258.012421,795.155656 254.56605,797.061904 L211.110601,821.09787 C206.277769,823.770994 200.192991,822.020204 197.519868,817.187373 C196.814494,815.912102 196.396382,814.498068 196.294803,813.044262 L187.572623,688.210878 C187.363226,685.213946 185.817552,682.469946 183.363027,680.737677 L79.6071034,607.512437 C75.0948228,604.327917 74.0184603,598.088427 77.2029804,593.576147 C77.986055,592.466576 78.9869313,591.528135 80.1445744,590.818053 L119.415573,566.729766 C122.838083,564.630445 127.184327,564.781675 130.452642,567.113806 Z" id="路径-2"></path>
        </g>
    </g>
</svg>