<?xml version="1.0" encoding="UTF-8"?>
<svg width="112px" height="139px" viewBox="0 0 112 139" version="1.1" xmlns="http://www.w3.org/2000/svg" xmlns:xlink="http://www.w3.org/1999/xlink">
    <title>路径 2备份</title>
    <g id="页面-1" stroke="none" stroke-width="1" fill="none" fill-rule="evenodd">
        <g id="桌面端-HD" transform="translate(-49.000000, -658.000000)" fill="#1A69F6">
            <path d="M99.3224679,660.502866 L151.501601,697.735681 C153.893729,699.442602 155.413971,702.115313 155.658473,705.043806 L160.667455,765.038308 C160.991438,768.918772 159.033397,772.634411 155.649339,774.560838 L119.560397,795.105025 C114.760756,797.837295 108.654937,796.161359 105.922668,791.361719 C105.181186,790.059195 104.741972,788.606657 104.637506,787.111514 L101.030504,735.487464 C100.821106,732.490533 99.2754324,729.746532 96.820908,728.014264 L53.5119605,697.449184 C48.99968,694.264664 47.9233174,688.025174 51.1078376,683.512894 C51.9059844,682.381966 52.9302288,681.429055 54.1157343,680.714483 L88.3517015,660.078509 C91.766251,658.020365 96.0771038,658.187112 99.3224679,660.502866 Z" id="路径-2备份"></path>
        </g>
    </g>
</svg>