<?xml version="1.0" encoding="UTF-8"?>
<svg width="220px" height="266px" viewBox="0 0 220 266" version="1.1" xmlns="http://www.w3.org/2000/svg" xmlns:xlink="http://www.w3.org/1999/xlink">
    <title>Group 2</title>
    <g id="页面-1" stroke="none" stroke-width="1" fill="none" fill-rule="evenodd">
        <g id="桌面端-HD" transform="translate(-41.000000, -563.000000)" fill="#1A69F6">
            <g id="Group-2" transform="translate(41.000885, 563.266763)">
                <path d="M89.4517577,3.84704297 L203.542184,85.2571297 C205.934311,86.9640504 207.454553,89.6367617 207.699055,92.5652547 L218.690376,224.212513 C219.018058,228.13729 217.011536,231.888893 213.565166,233.79514 L170.109716,257.831107 C165.276885,260.50423 159.192107,258.753441 156.518983,253.92061 C155.813609,252.645339 155.395497,251.231304 155.293919,249.777499 L146.571739,124.944114 C146.362341,121.947183 144.816667,119.203183 142.362143,117.470914 L38.6062187,44.245674 C34.0939382,41.0611538 33.0175756,34.8216641 36.2020958,30.3093835 C36.9851703,29.1998122 37.9860467,28.2613716 39.1436898,27.5512894 L78.4146884,3.46300226 C81.8371985,1.36368194 86.1834423,1.51491181 89.4517577,3.84704297 Z" id="路径-2"></path>
                <path d="M58.3215833,97.2361025 L110.500717,134.468918 C112.892844,136.175839 114.413086,138.84855 114.657588,141.777043 L119.666571,201.771545 C119.990553,205.652009 118.032512,209.367647 114.648454,211.294075 L78.559512,231.838262 C73.7598716,234.570531 67.6540523,232.894596 64.9217829,228.094955 C64.1803009,226.792431 63.7410876,225.339893 63.6366211,223.844751 L60.0296191,172.220701 C59.8202218,169.223769 58.2745477,166.479769 55.8200234,164.7475 L12.5110759,134.182421 C7.99879531,130.997901 6.92243279,124.758411 10.1069529,120.24613 C10.9050998,119.115202 11.9293442,118.162292 13.1148497,117.44772 L47.3508168,96.8117458 C50.7653664,94.7536016 55.0762191,94.9203483 58.3215833,97.2361025 Z" id="路径-2备份"></path>
            </g>
        </g>
    </g>
</svg>