<?xml version="1.0" encoding="UTF-8"?>
<svg width="775px" height="731px" viewBox="0 0 775 731" version="1.1" xmlns="http://www.w3.org/2000/svg" xmlns:xlink="http://www.w3.org/1999/xlink">
    <title>矩形</title>
    <g id="页面-1" stroke="none" stroke-width="1" fill="none" fill-rule="evenodd">
        <g id="桌面端-HD" transform="translate(-611.000000, -220.000000)" stroke="#206CFA" stroke-width="5">
            <path d="M755,274.056753 C757.252115,274.056753 759.501982,274.198959 761.736174,274.482522 L761.736174,274.482522 L1252.15827,336.726828 C1257.72055,337.432792 1262.59837,340.13277 1266.10483,344.057852 C1269.61128,347.982933 1271.74637,353.133118 1271.82319,358.739494 L1271.82319,358.739494 L1278.15298,820.691728 C1278.23811,826.904348 1275.79702,832.563325 1271.78149,836.690428 C1267.76955,840.813838 1262.18599,843.408115 1255.98005,843.497654 L1255.98005,843.497654 L724,843.5 C717.786797,843.5 712.161797,840.981602 708.090097,836.909903 C704.018398,832.838203 701.5,827.213203 701.5,821 L701.5,821 L701.5,327.556753 C701.5,312.783136 707.488191,299.408136 717.169787,289.72654 C726.851383,280.044944 740.226383,274.056753 755,274.056753 Z" id="矩形" transform="translate(990.000000, 555.000000) rotate(-35.000000) translate(-990.000000, -555.000000) "></path>
        </g>
    </g>
</svg>