<?xml version="1.0" encoding="UTF-8"?>
<svg width="17px" height="16px" viewBox="0 0 17 16" version="1.1" xmlns="http://www.w3.org/2000/svg" xmlns:xlink="http://www.w3.org/1999/xlink">
    <title>星形</title>
    <g id="页面-1" stroke="none" stroke-width="1" fill="none" fill-rule="evenodd">
        <g id="桌面端-HD" transform="translate(-354.000000, -1072.000000)" fill="#F5D77D">
            <g id="编组-3" transform="translate(165.000000, 1027.000000)">
                <path d="M197.034659,58.4946443 L193.709512,60.2427773 C193.220668,60.4997781 192.616041,60.3118316 192.35904,59.822987 C192.256701,59.6283266 192.221386,59.4053585 192.258563,59.1886009 L192.893609,55.4859957 C192.949247,55.1616016 192.841699,54.8306014 192.606013,54.6008643 L189.915913,51.9786647 C189.520429,51.5931635 189.512337,50.9600502 189.897838,50.5645667 C190.051346,50.407083 190.252489,50.3045959 190.470126,50.2729713 L194.187753,49.7327685 C194.513463,49.6854401 194.795029,49.4808707 194.940691,49.1857272 L196.603264,45.8169858 C196.847686,45.3217321 197.447312,45.1183931 197.942566,45.3628154 C198.139778,45.4601456 198.299406,45.6197731 198.396736,45.8169858 L200.059309,49.1857272 C200.204971,49.4808707 200.486537,49.6854401 200.812247,49.7327685 L204.529874,50.2729713 C205.076419,50.352389 205.4551,50.8598318 205.375683,51.4063767 C205.344058,51.6240137 205.241571,51.8251561 205.084087,51.9786647 L202.393987,54.6008643 C202.158301,54.8306014 202.050753,55.1616016 202.106391,55.4859957 L202.741437,59.1886009 C202.834798,59.7329373 202.46921,60.2498932 201.924874,60.3432542 C201.708116,60.3804311 201.485148,60.3451164 201.290488,60.2427773 L197.965341,58.4946443 C197.674017,58.3414862 197.325983,58.3414862 197.034659,58.4946443 Z" id="星形"></path>
            </g>
        </g>
    </g>
</svg>