<svg xmlns="http://www.w3.org/2000/svg" xmlns:xlink="http://www.w3.org/1999/xlink" viewBox="0 0 117.31 114.8"><defs><style>.cls-1{fill:none;}.cls-2{isolation:isolate;}.cls-3{clip-path:url(#clip-path);}.cls-4{fill:#002ac1;}.cls-5{clip-path:url(#clip-path-2);}.cls-6{clip-path:url(#clip-path-3);}.cls-7{clip-path:url(#clip-path-4);}.cls-8{clip-path:url(#clip-path-5);}.cls-9{clip-path:url(#clip-path-6);}.cls-10{clip-path:url(#clip-path-7);}</style><clipPath id="clip-path"><path class="cls-1" d="M116.15,60.78l-2.51,4a7.65,7.65,0,0,1-3.16,2.78l2.52-4A7.61,7.61,0,0,0,116.15,60.78Z"/></clipPath><clipPath id="clip-path-2"><path class="cls-1" d="M86.58,80.49l2.51-4a7.68,7.68,0,0,1,3.14-2.79l-2.52,4A7.71,7.71,0,0,0,86.58,80.49Z"/></clipPath><clipPath id="clip-path-3"><path class="cls-1" d="M1.19,25.09l2.51-4a8.32,8.32,0,0,0,.4,9.16l-2.51,4A8.28,8.28,0,0,1,1.19,25.09Z"/></clipPath><clipPath id="clip-path-4"><path class="cls-1" d="M18.69,59.14l-2.51,4a8.58,8.58,0,0,0-.91-8.18l2.51-4A8.56,8.56,0,0,1,18.69,59.14Z"/></clipPath><clipPath id="clip-path-5"><path class="cls-1" d="M52.86,91.32l-2.51,4a10.76,10.76,0,0,0-4-2.25,9.89,9.89,0,0,0-4.45-.33l2.52-4a9.86,9.86,0,0,1,4.44.33A10.76,10.76,0,0,1,52.86,91.32Z"/></clipPath><clipPath id="clip-path-6"><path class="cls-1" d="M85.83,107.15l-2.52,4c-2,3.11-6.1,4.43-10,3.23a10.73,10.73,0,0,1-4-2.27l2.51-4a10.8,10.8,0,0,0,4,2.26C79.72,111.58,83.87,110.26,85.83,107.15Z"/></clipPath><clipPath id="clip-path-7"><path class="cls-1" d="M20.76,92.51l-2.51,4a9.91,9.91,0,0,1-4.45-.31c-5.29-1.62-8.94-7.42-6.7-12.51l2.52-4C7.37,84.78,11,90.58,16.32,92.2A9.85,9.85,0,0,0,20.76,92.51Z"/></clipPath></defs><g id="图层_2" data-name="图层 2"><g id="图层_4" data-name="图层 4"><g class="cls-2"><g class="cls-2"><g class="cls-3"><g class="cls-2"><path class="cls-4" d="M116.15,60.78l-2.51,4a7.65,7.65,0,0,1-3.16,2.78l2.52-4a7.61,7.61,0,0,0,3.15-2.78"/></g></g></g><polygon class="cls-4" points="113 63.56 110.48 67.54 89.71 77.7 92.23 73.72 113 63.56"/><g class="cls-2"><g class="cls-5"><g class="cls-2"><path class="cls-4" d="M92.23,73.72l-2.52,4a7.71,7.71,0,0,0-3.13,2.79l2.51-4a7.68,7.68,0,0,1,3.14-2.79"/></g></g></g><g class="cls-2"><g class="cls-6"><g class="cls-2"><path class="cls-4" d="M4.1,30.27l-2.51,4a8.28,8.28,0,0,1-.4-9.15l2.51-4a8.32,8.32,0,0,0,.4,9.16"/></g></g></g><polygon class="cls-4" points="17.78 50.96 15.27 54.94 1.59 34.24 4.1 30.27 17.78 50.96"/><g class="cls-2"><g class="cls-7"><g class="cls-2"><path class="cls-4" d="M18.69,59.14l-2.51,4a8.58,8.58,0,0,0-.91-8.18l2.51-4a8.56,8.56,0,0,1,.91,8.18"/></g></g></g><g class="cls-2"><g class="cls-8"><g class="cls-2"><path class="cls-4" d="M52.86,91.32l-2.51,4a10.76,10.76,0,0,0-4-2.25,9.89,9.89,0,0,0-4.45-.33l2.52-4a9.86,9.86,0,0,1,4.44.33,10.76,10.76,0,0,1,4,2.25"/></g></g></g><polygon class="cls-4" points="71.79 108.11 69.28 112.09 50.35 95.3 52.86 91.32 71.79 108.11"/><g class="cls-2"><g class="cls-9"><g class="cls-2"><path class="cls-4" d="M85.83,107.15l-2.52,4c-2,3.11-6.1,4.43-10,3.23a10.73,10.73,0,0,1-4-2.27l2.51-4a10.8,10.8,0,0,0,4,2.26c3.93,1.2,8.08-.12,10-3.23"/></g></g></g><polygon class="cls-4" points="9.62 79.69 7.1 83.67 16.18 63.12 18.69 59.14 9.62 79.69"/><polygon class="cls-4" points="44.42 88.74 41.9 92.72 18.25 96.49 20.76 92.51 44.42 88.74"/><g class="cls-2"><g class="cls-10"><g class="cls-2"><path class="cls-4" d="M20.76,92.51l-2.51,4a9.91,9.91,0,0,1-4.45-.31c-5.29-1.62-8.94-7.42-6.7-12.51l2.52-4C7.37,84.78,11,90.58,16.32,92.2a9.85,9.85,0,0,0,4.44.31"/></g></g></g><path class="cls-4" d="M69.23.46A10.36,10.36,0,0,1,76.3,7.6l6.08,23.08a10.4,10.4,0,0,0,5.79,6.65l23.07,10.46c7.21,3.27,8.25,12.59,1.76,15.77L92.23,73.72a7.61,7.61,0,0,0-4.31,6.59l-.94,23c-.24,5.7-5.91,8.66-11.19,7a10.8,10.8,0,0,1-4-2.26L52.86,91.32a10.76,10.76,0,0,0-4-2.25,9.86,9.86,0,0,0-4.44-.33L20.76,92.51a9.85,9.85,0,0,1-4.44-.31C11,90.58,7.37,84.78,9.62,79.69l9.07-20.55A8.56,8.56,0,0,0,17.78,51L4.1,30.27c-4.28-6.48.63-14,8.31-12.7l24.52,4.1a8.66,8.66,0,0,0,7.89-2.48L60,2.63A8.78,8.78,0,0,1,69.23.46Z"/></g></g></g></svg>