<?xml version="1.0" encoding="UTF-8"?>
<svg width="957px" height="537px" viewBox="0 0 957 537" version="1.1" xmlns="http://www.w3.org/2000/svg" xmlns:xlink="http://www.w3.org/1999/xlink">
    <title>编组 4</title>
    <g id="页面-1" stroke="none" stroke-width="1" fill="none" fill-rule="evenodd">
        <g id="桌面端-HD" transform="translate(-159.000000, -1817.000000)">
            <g id="编组-4" transform="translate(159.518489, 1817.620353)">
                <rect id="矩形备份-11" stroke="#0052E0" stroke-width="5" transform="translate(146.224914, 45.828659) rotate(45.000000) translate(-146.224914, -45.828659) " x="116.319159" y="15.9229035" width="59.8115111" height="59.8115111" rx="16"></rect>
                <rect id="矩形备份-14" stroke="#0052E0" stroke-width="5" transform="translate(409.664655, 216.695370) rotate(45.000000) translate(-409.664655, -216.695370) " x="271.248718" y="78.2794331" width="276.831874" height="276.831874" rx="16"></rect>
                <rect id="矩形备份-16" stroke="#0052E0" stroke-width="5" transform="translate(833.117786, 413.093889) rotate(45.000000) translate(-833.117786, -413.093889) " x="748.711442" y="328.687544" width="168.812689" height="168.812689" rx="16"></rect>
                <rect id="矩形备份-12" fill="#0040D4" transform="translate(409.531792, 158.099054) rotate(45.000000) translate(-409.531792, -158.099054) " x="376.63504" y="125.202302" width="65.7935037" height="65.7935037" rx="15"></rect>
                <rect id="矩形备份-17" fill="#0040D4" transform="translate(719.841451, 413.417128) rotate(45.000000) translate(-719.841451, -413.417128) " x="686.9447" y="380.520376" width="65.7935037" height="65.7935037" rx="15"></rect>
                <rect id="矩形备份-13" fill="#0040D4" transform="translate(536.208837, 55.318332) rotate(45.000000) translate(-536.208837, -55.318332) " x="519.514962" y="38.6244575" width="33.3877482" height="33.3877482" rx="10"></rect>
                <rect id="矩形备份-18" fill="#0040D4" transform="translate(278.926777, 414.727621) rotate(45.000000) translate(-278.926777, -414.727621) " x="262.232903" y="398.033746" width="33.3877482" height="33.3877482" rx="10"></rect>
                <rect id="矩形备份-19" fill="#0040D4" transform="translate(32.635560, 287.068583) rotate(45.000000) translate(-32.635560, -287.068583) " x="9.55873428" y="263.991758" width="46.1536519" height="46.1536519" rx="10"></rect>
                <rect id="矩形备份-15" fill="#0040D4" transform="translate(918.392879, 204.581206) rotate(45.000000) translate(-918.392879, -204.581206) " x="895.316053" y="181.50438" width="46.1536519" height="46.1536519" rx="10"></rect>
            </g>
        </g>
    </g>
</svg>