<?xml version="1.0" encoding="UTF-8"?>
<svg width="120px" height="163px" viewBox="0 0 120 163" version="1.1" xmlns="http://www.w3.org/2000/svg" xmlns:xlink="http://www.w3.org/1999/xlink">
    <title>Group 3</title>
    <g id="页面-1" stroke="none" stroke-width="1" fill="none" fill-rule="evenodd">
        <g id="桌面端-HD" transform="translate(-1276.000000, -366.000000)">
            <g id="Group-3" transform="translate(1277.000000, 388.000000)">
                <path d="M51,0 L51.0004873,0.016147616 C58.2309694,-0.253468427 65.4483965,2.85937983 69.9767712,8.89365667 L70.1965871,9.19179565 L108.446,62 L118,62 L118,84 L117.890622,84.0002988 C117.196357,90.7255563 113.217813,97.0593214 106.549793,100.626486 L106.198844,100.810392 L32.8214504,138.467885 C21.954838,144.044662 8.44015273,140.102145 2.63555599,129.662027 C1.44453043,127.519854 0.670654205,125.270569 0.286757545,123.000141 L0,123 L0,101 L11.1644751,101.00031 C11.2669885,100.943569 11.3701405,100.887504 11.4739282,100.832122 L11.8011462,100.660872 L63.045929,74.3617618 L33.5769097,33.6747954 C30.7785252,29.8113058 29.4872115,25.3719963 29.5828083,21.000642 L29,21 L29,0 L51,0 Z" id="形状结合" fill="#DFDFFD" fill-rule="nonzero"></path>
                <polyline id="路径" stroke="#FAFAFE" stroke-width="45" stroke-linecap="round" stroke-linejoin="round" points="51.6292237 0.517454296 95.5351741 63.8950429 22.4446224 102.12821"></polyline>
            </g>
        </g>
    </g>
</svg>