<svg xmlns="http://www.w3.org/2000/svg" viewBox="0 0 118.1 165.53"><defs><style>.cls-1{fill:#dddcee;}.cls-2{fill:#fafbfd;}</style></defs><g id="图层_2" data-name="图层 2"><g id="图层_1-2" data-name="图层 1"><path class="cls-1" d="M118.09,20.89h-9.62V23a22.47,22.47,0,0,0-23.31-1.49L12.07,59.71A24.22,24.22,0,0,0,9.62,61.2V60H0V80.55H0A22.58,22.58,0,0,0,4,92.46l43.91,63.38a22.48,22.48,0,0,0,40.92-14.35v-18h-8.6L55.5,87.78,106,61.35a22.52,22.52,0,0,0,12.07-19.88h0Z"/><path class="cls-2" d="M66.43,146.62a22.49,22.49,0,0,1-18.52-9.69L4,73.55A22.5,22.5,0,0,1,12.07,40.8L85.16,2.57A22.5,22.5,0,1,1,106,42.44L55.5,68.86,84.9,111.3a22.51,22.51,0,0,1-18.47,35.32Z"/></g></g></svg>